<?xml version="1.0" encoding="utf-8"?>
<!-- Generator: Adobe Illustrator 17.1.0, SVG Export Plug-In . SVG Version: 6.00 Build 0)  -->
<!DOCTYPE svg PUBLIC "-//W3C//DTD SVG 1.1//EN" "http://www.w3.org/Graphics/SVG/1.1/DTD/svg11.dtd">
<svg version="1.1" id="Layer_1" xmlns="http://www.w3.org/2000/svg" xmlns:xlink="http://www.w3.org/1999/xlink" x="0px" y="0px"
	 viewBox="0 0 159.8 105.9" enable-background="new 0 0 159.8 105.9" xml:space="preserve">
<path fill="#2690B0" d="M159.1,97.3c0,4.2-3.4,7.6-7.6,7.6H19.7c-4.2,0-7.6-3.4-7.6-7.6V8.6c0-4.2,3.4-7.6,7.6-7.6h131.8
	c4.2,0,7.6,3.4,7.6,7.6V97.3z"/>
<rect x="16.1" y="6.2" fill="#E08A73" width="139" height="85.3"/>
<g>
	<path fill="#FFFFFF" d="M48.9,20.2c-0.1,0.1-0.3,0.2-0.6,0.3c-0.1,0.1-0.3,0.2-0.6,0.2c-0.1,0-0.3,0.1-0.6,0.2l-1.4,0.7
		c-0.3,0.1-0.8,0.3-1.4,0.5c-0.6,0.2-1,0.5-1.2,0.9c-0.2-0.1-0.3-0.2-0.3-0.4c0-0.5,0.6-1,1.8-1.4c0.1,0,0.4-0.1,0.7-0.2
		c0.2-0.2,0.7-0.4,1.4-0.6c0.7-0.3,1.2-0.5,1.6-0.6c0.6-0.3,1.1-0.6,1.5-0.9c0,0,0-0.1,0.1-0.2c-0.2-0.2-0.4-0.3-0.6-0.3
		c0,0-0.3,0-0.7-0.1c-1.1-0.1-1.9-0.2-2.2-0.2c0,0-0.1,0-0.2,0s-0.1,0-0.1,0c-0.5,0-1-0.1-1.4-0.2v-0.2c0-0.1,0-0.1,0.1-0.2
		c3.1-1.6,4.6-2.9,4.6-3.7c0-0.3-0.2-0.5-0.6-0.7c-0.3-0.1-0.6-0.2-1-0.2c-0.1,0-0.3,0-0.6,0.1c-0.3,0.1-0.5,0.1-0.6,0.1
		c0,0-0.1,0-0.1,0c0,0-0.1,0-0.1,0c-0.1,0-0.1,0-0.1,0c0,0,0,0.1,0,0.1c0,0-0.3,0.1-0.7,0.2c-0.9,0.2-1.5,0.6-1.9,1
		c-0.1,0.1-0.1,0.4-0.1,1c0,0.1,0,0.3,0,0.6c0,0.3,0,0.5,0,0.6c0,0.8,0.1,1.8,0.3,2.9c0,0,0,0.2,0.1,0.4c0.1,0.2,0.1,0.3,0.1,0.4
		c0,0.1,0,0.1-0.1,0.2c-0.1,0.1-0.1,0.1-0.2,0.1c-0.2,0-0.2-0.1-0.3-0.4c0-0.1,0-0.2-0.1-0.5c-0.1-0.4-0.2-0.8-0.2-1.2
		c-0.1-0.3-0.1-1.6-0.2-3.7c0,0,0-0.1-0.1-0.2c0,0-0.1,0.1-0.2,0.1c-0.2,0-0.3-0.1-0.3-0.3c0-0.2,0.3-0.4,0.8-0.7
		c0.2-0.1,1-0.4,2.3-0.9c0.2-0.1,0.4-0.2,0.7-0.3c0.6-0.2,1.1-0.3,1.4-0.3c0.5,0,0.9,0.1,1.3,0.3c0.5,0.2,0.7,0.6,0.7,1
		c0,0.5-0.4,1.1-1.1,1.7c-0.4,0.4-1,0.8-1.7,1.3c-0.3,0.2-0.7,0.5-1.1,0.8c0,0,0.3,0.1,0.7,0.1c2.6,0,3.8,0.4,3.8,1.2
		C50.3,19.3,49.8,19.7,48.9,20.2z"/>
	<path fill="#FFFFFF" d="M54.5,19.2c0,0.1-0.1,0.2-0.1,0.2c0,0.1,0,0.2,0,0.4c-0.2,0.4-0.4,0.9-0.6,1.7c-0.1,0.1-0.2,0.4-0.5,0.9
		c0-0.1-0.1,0.2-0.3,0.7c-0.1,0.2-0.2,0.5-0.4,1c0,0.1-0.1,0.3-0.1,0.5c0,0,0,0.2-0.1,0.4c-0.1,0.2-0.1,0.3-0.1,0.3c0,0,0,0,0,0.1
		c-0.1,0.1-0.2,0.2-0.3,0.4h-0.2c-0.1-0.2-0.1-0.3-0.1-0.4c0-0.3,0.2-1,0.6-2c0.1-0.3,0.3-0.8,0.6-1.4c0.1-0.1,0.2-0.4,0.4-0.8
		c0.1-0.2,0.1-0.3,0.2-0.5c0.1-0.1,0.2-0.3,0.3-0.8c0,0,0-0.1,0-0.2c0-0.1,0-0.1,0-0.1s-0.2,0.1-0.6,0.2c-0.3,0.1-0.5,0.2-0.6,0.2
		c-0.1,0-0.2,0-0.5,0.1c-0.2,0-0.4,0.1-0.4,0.1c-0.2,0-0.5-0.2-0.7-0.6c-0.2-0.4-0.3-0.7-0.3-1c0-0.1,0-0.2,0.1-0.4h0.3
		c0.2,1,0.6,1.4,1,1.4c0.3,0,0.8-0.2,1.3-0.5c0,0,0.3-0.2,0.8-0.6c0.2,0.1,0.3,0.2,0.3,0.4C54.5,19,54.5,19.1,54.5,19.2z"/>
	<path fill="#FFFFFF" d="M59.4,18.4l-0.1,0.1c-0.4-0.1-0.6-0.2-0.8-0.2c-0.2,0-0.4,0-0.5,0h-0.4c0,0-0.1,0-0.2,0c0,0-0.1,0-0.2,0.1
		c-0.1,0-0.3,0-0.6,0.1c-0.4,0.2-0.5,0.5-0.6,1c0,0.2-0.1,0.4,0,0.6c0,0.4,0,0.6,0,0.6c-0.1,0-0.3,0-0.5,0.1
		c-0.1-0.2-0.1-0.3-0.1-0.4s0-0.1,0-0.3c0-0.1,0-0.2,0-0.3c0-0.2,0.1-0.5,0.2-0.9c0-0.2,0.1-0.3,0.2-0.5c0.1-0.2,0.2-0.3,0.3-0.4
		c0.3-0.2,0.9-0.3,1.8-0.3c0.9,0,1.4,0.1,1.5,0.3V18.4z"/>
	<path fill="#FFFFFF" d="M64.2,20.8C64.1,20.9,64.1,21,64,21c-0.1,0-0.3-0.2-0.5-0.4c-0.2-0.3-0.4-0.5-0.6-0.5c0,0-0.4,0.1-1,0.4
		c-0.6,0.3-1.1,0.4-1.3,0.4c-0.2,0-0.3-0.1-0.5-0.2s-0.3-0.3-0.3-0.4c0-0.3,0.4-0.7,1.1-1.2c0.7-0.4,1.2-0.6,1.6-0.6
		c0.2,0,0.3,0.1,0.4,0.3v0.2c-0.1,0.1-0.1,0.1-0.2,0.1c0,0-0.1,0-0.2-0.1c-0.1,0-0.1-0.1-0.2-0.1c-0.1,0-0.4,0.1-0.8,0.4
		c-0.4,0.2-0.7,0.4-0.8,0.5c-0.1,0.1-0.2,0.3-0.3,0.4c0.1,0.1,0.2,0.2,0.4,0.2c0.1,0,0.5-0.1,1.1-0.4c0.6-0.3,1-0.4,1.2-0.4
		s0.3,0,0.4,0.2c0,0,0.1,0.2,0.2,0.4c0.1,0.2,0.2,0.4,0.4,0.5V20.8z M64,15.3c0,0,0,0.1-0.1,0.2c-0.1,0.1-0.2,0.2-0.2,0.2
		c0,0.1-0.1,0.2-0.1,0.3c-0.1,0.2-0.3,0.3-0.5,0.5c-0.2,0.1-0.4,0.2-0.6,0.2c-0.3,0-0.5,0-0.7-0.1c-0.1-0.1-0.3-0.2-0.5-0.5
		c-0.2-0.3-0.3-0.5-0.3-0.6c0-0.3,0.2-0.7,0.5-1.1c0.4-0.4,0.7-0.6,1-0.6c0.4,0,0.7,0.1,1,0.2c0,0,0.2,0.2,0.5,0.4L64,15.3z
		 M63,14.6c-0.1,0-0.2,0-0.5,0c-0.2,0-0.3,0.1-0.5,0.3s-0.3,0.4-0.3,0.5c0,0.1,0.1,0.2,0.2,0.3c0.2,0.1,0.3,0.2,0.4,0.2
		c0.2,0,0.4-0.1,0.6-0.2c0.2-0.2,0.3-0.3,0.3-0.5C63.2,14.8,63.1,14.7,63,14.6z"/>
</g>
<line fill="#E08A73" stroke="#FEFEFE" stroke-miterlimit="10" x1="42.1" y1="32.9" x2="128.5" y2="32.9"/>
<line fill="#E08A73" stroke="#FEFEFE" stroke-miterlimit="10" x1="42.3" y1="38.9" x2="128.7" y2="38.9"/>
<line fill="#E08A73" stroke="#FEFEFE" stroke-miterlimit="10" x1="42.3" y1="44.9" x2="128.8" y2="44.9"/>
<line fill="#E08A73" stroke="#FEFEFE" stroke-width="3" stroke-miterlimit="10" x1="121.1" y1="18.7" x2="128.5" y2="18.7"/>
<line fill="#E08A73" stroke="#FEFEFE" stroke-width="3" stroke-miterlimit="10" x1="109.7" y1="18.7" x2="117.2" y2="18.7"/>
<line fill="#E08A73" stroke="#FEFEFE" stroke-width="3" stroke-miterlimit="10" x1="96.9" y1="18.7" x2="104.3" y2="18.7"/>
<line fill="#E08A73" stroke="#FEFEFE" stroke-miterlimit="10" x1="42.4" y1="50.2" x2="128.8" y2="50.2"/>
<line fill="#E08A73" stroke="#FEFEFE" stroke-miterlimit="10" x1="42.4" y1="55" x2="128.8" y2="55"/>
<line fill="#E08A73" stroke="#FEFEFE" stroke-miterlimit="10" x1="42.4" y1="60.3" x2="128.9" y2="60.3"/>
<circle fill="#FFFFFF" cx="87.3" cy="71.3" r="5.8"/>
<circle fill="#FFFFFF" cx="54" cy="71.3" r="5.8"/>
<circle fill="#FFFFFF" cx="118.2" cy="71.3" r="5.8"/>
<line fill="#E08A73" stroke="#FEFEFE" stroke-miterlimit="10" x1="42.7" y1="81" x2="64.5" y2="81"/>
<line fill="#E08A73" stroke="#FEFEFE" stroke-miterlimit="10" x1="42.7" y1="86.2" x2="64.5" y2="86.2"/>
<line fill="#E08A73" stroke="#FEFEFE" stroke-miterlimit="10" x1="76.4" y1="80.9" x2="98.2" y2="80.9"/>
<line fill="#E08A73" stroke="#FEFEFE" stroke-miterlimit="10" x1="76.4" y1="86.2" x2="98.2" y2="86.2"/>
<line fill="#E08A73" stroke="#FEFEFE" stroke-miterlimit="10" x1="107.3" y1="81" x2="129.1" y2="81"/>
<line fill="#E08A73" stroke="#FEFEFE" stroke-miterlimit="10" x1="107.3" y1="86.2" x2="129.1" y2="86.2"/>
<path opacity="0.5" fill="#FFFFFF" d="M77.4,1.1l34.3,103.8H19.7c0,0-7.6-0.5-7.6-7.6s0-87.9,0-87.9S12,1.1,19.7,1.1
	S77.4,1.1,77.4,1.1z"/>
<path fill="#2690B0" d="M26.4,101c0,2.1-1.5,3.8-3.2,3.8H3.9c-1.8,0-3.2-1.7-3.2-3.8V59.4c0-2.1,1.5-3.8,3.2-3.8h19.2
	c1.8,0,3.2,1.7,3.2,3.8V101z"/>
<rect x="1.5" y="59.9" fill="#E08A73" width="24.1" height="40.3"/>
<line fill="#E08A73" stroke="#FEFEFE" stroke-miterlimit="10" x1="2.8" y1="87.5" x2="24.1" y2="87.5"/>
<line fill="#E08A73" stroke="#FEFEFE" stroke-miterlimit="10" x1="2.8" y1="84.3" x2="24.1" y2="84.3"/>
<line fill="#E08A73" stroke="#FEFEFE" stroke-miterlimit="10" x1="2.8" y1="81.3" x2="24.1" y2="81.3"/>
<line fill="#E08A73" stroke="#FEFEFE" stroke-miterlimit="10" x1="2.8" y1="78.4" x2="24.1" y2="78.4"/>
<g>
	<path fill="#FFFFFF" d="M10.5,70.5c-0.1,0-0.2,0.1-0.4,0.2c-0.1,0-0.2,0.1-0.4,0.2c-0.1,0-0.2,0.1-0.4,0.2l-1,0.5
		c-0.2,0.1-0.6,0.2-1,0.4c-0.4,0.2-0.7,0.4-0.9,0.7C6.1,72.6,6,72.5,6,72.4c0-0.4,0.4-0.7,1.3-1c0.1,0,0.3-0.1,0.5-0.2
		c0.2-0.1,0.5-0.3,1-0.4c0.5-0.2,0.9-0.3,1.2-0.5c0.4-0.2,0.8-0.4,1.1-0.7c0,0,0-0.1,0.1-0.2c-0.2-0.1-0.3-0.2-0.5-0.2
		c0,0-0.2,0-0.5-0.1C9.3,69.1,8.8,69,8.5,69c0,0-0.1,0-0.1,0s-0.1,0-0.1,0c-0.4,0-0.7-0.1-1-0.2v-0.1c0,0,0-0.1,0.1-0.1
		c2.2-1.2,3.4-2.1,3.4-2.7c0-0.2-0.1-0.4-0.4-0.5c-0.2-0.1-0.4-0.1-0.7-0.1c-0.1,0-0.2,0-0.4,0.1c-0.2,0.1-0.4,0.1-0.4,0.1
		c0,0,0,0-0.1,0s0,0-0.1,0c0,0-0.1,0-0.1,0c0,0,0,0,0,0c0,0-0.2,0.1-0.5,0.1c-0.7,0.2-1.1,0.4-1.3,0.7c-0.1,0.1-0.1,0.3-0.1,0.7
		c0,0.1,0,0.2,0,0.5c0,0.2,0,0.4,0,0.5c0,0.6,0.1,1.3,0.2,2.1c0,0,0,0.1,0.1,0.3C7,70.6,7,70.7,7,70.8c0,0,0,0.1-0.1,0.2
		C6.9,71,6.9,71,6.8,71c-0.1,0-0.2-0.1-0.2-0.3c0,0,0-0.2,0-0.4c-0.1-0.3-0.1-0.6-0.1-0.8c0-0.2-0.1-1.1-0.1-2.7c0,0,0-0.1,0-0.1
		c0,0-0.1,0-0.1,0c-0.1,0-0.2-0.1-0.2-0.2c0-0.1,0.2-0.3,0.6-0.5c0.2-0.1,0.7-0.3,1.6-0.7c0.1-0.1,0.3-0.1,0.5-0.2
		C9,65,9.4,65,9.7,65c0.4,0,0.7,0.1,0.9,0.2c0.3,0.2,0.5,0.4,0.5,0.7c0,0.4-0.3,0.8-0.8,1.3c-0.3,0.3-0.7,0.6-1.3,0.9
		c-0.2,0.2-0.5,0.4-0.8,0.6c0,0,0.2,0,0.5,0c1.8,0,2.8,0.3,2.8,0.8C11.5,69.9,11.2,70.2,10.5,70.5z"/>
	<path fill="#FFFFFF" d="M14.6,69.9c0,0.1,0,0.2,0,0.2c0,0.1,0,0.1,0,0.3c-0.1,0.3-0.3,0.7-0.4,1.2c-0.1,0.1-0.2,0.3-0.4,0.7
		c0,0,0,0.1-0.2,0.5c0,0.1-0.1,0.4-0.3,0.7c0,0.1,0,0.2-0.1,0.4c0,0,0,0.1-0.1,0.3c0,0.1-0.1,0.2-0.1,0.2c0,0,0,0,0,0
		c0,0.1-0.1,0.2-0.2,0.3h-0.1c-0.1-0.1-0.1-0.2-0.1-0.3c0-0.2,0.2-0.7,0.4-1.5c0.1-0.2,0.2-0.6,0.4-1c0.1-0.1,0.2-0.3,0.3-0.6
		c0-0.1,0.1-0.2,0.1-0.4c0-0.1,0.1-0.2,0.2-0.5c0,0,0-0.1,0-0.1c0,0,0-0.1,0-0.1c0,0-0.2,0.1-0.4,0.2c-0.2,0.1-0.4,0.2-0.4,0.2
		c-0.1,0-0.2,0-0.3,0c-0.2,0-0.3,0-0.3,0c-0.2,0-0.3-0.2-0.5-0.4c-0.1-0.3-0.2-0.5-0.2-0.7c0-0.1,0-0.2,0.1-0.3h0.2
		c0.2,0.7,0.4,1,0.7,1c0.2,0,0.6-0.1,0.9-0.4c0,0,0.2-0.1,0.6-0.4c0.1,0,0.2,0.2,0.2,0.3C14.6,69.7,14.6,69.8,14.6,69.9z"/>
	<path fill="#FFFFFF" d="M18.1,69.3L18,69.4c-0.3-0.1-0.4-0.1-0.6-0.1c-0.2,0-0.3,0-0.4,0h-0.3c0,0-0.1,0-0.1,0c0,0-0.1,0-0.1,0
		c-0.1,0-0.2,0-0.4,0.1c-0.3,0.1-0.4,0.4-0.4,0.7c0,0.2,0,0.3,0,0.4c0,0.3,0,0.4,0,0.4c0,0-0.2,0-0.3,0c-0.1-0.1-0.1-0.2-0.1-0.3
		c0,0,0-0.1,0-0.2c0-0.1,0-0.2,0-0.2c0-0.2,0-0.4,0.1-0.6c0-0.1,0.1-0.2,0.1-0.4c0.1-0.1,0.1-0.2,0.2-0.3c0.2-0.2,0.6-0.2,1.3-0.2
		c0.6,0,1,0.1,1.1,0.2V69.3z"/>
	<path fill="#FFFFFF" d="M21.6,71c0,0.1-0.1,0.1-0.1,0.1c-0.1,0-0.2-0.1-0.4-0.3c-0.2-0.2-0.3-0.3-0.4-0.3c0,0-0.3,0.1-0.7,0.3
		c-0.5,0.2-0.8,0.3-1,0.3c-0.1,0-0.2-0.1-0.4-0.2c-0.1-0.1-0.2-0.2-0.2-0.3c0-0.2,0.3-0.5,0.8-0.9c0.5-0.3,0.9-0.5,1.2-0.5
		c0.1,0,0.2,0.1,0.3,0.2v0.1c0,0.1-0.1,0.1-0.2,0.1c0,0-0.1,0-0.1,0c-0.1,0-0.1,0-0.1,0c-0.1,0-0.3,0.1-0.6,0.3
		c-0.3,0.2-0.5,0.3-0.6,0.4c-0.1,0.1-0.2,0.2-0.2,0.3c0.1,0.1,0.2,0.1,0.3,0.1c0.1,0,0.4-0.1,0.8-0.3c0.4-0.2,0.7-0.3,0.9-0.3
		c0.1,0,0.2,0,0.3,0.1c0,0,0.1,0.1,0.2,0.3c0.1,0.1,0.2,0.3,0.3,0.4V71z M21.4,67c0,0,0,0.1-0.1,0.2c-0.1,0.1-0.1,0.1-0.1,0.1
		c0,0,0,0.1-0.1,0.2c-0.1,0.1-0.2,0.2-0.4,0.3C20.6,68,20.4,68,20.3,68c-0.2,0-0.4,0-0.5-0.1c-0.1-0.1-0.2-0.2-0.3-0.4
		c-0.1-0.2-0.2-0.3-0.2-0.4c0-0.2,0.1-0.5,0.4-0.8c0.3-0.3,0.5-0.4,0.7-0.4c0.3,0,0.5,0,0.7,0.2c0,0,0.1,0.1,0.3,0.3L21.4,67z
		 M20.7,66.5c0,0-0.2,0-0.4,0c-0.1,0-0.2,0.1-0.4,0.2c-0.1,0.1-0.2,0.3-0.2,0.4c0,0.1,0.1,0.1,0.2,0.2s0.2,0.1,0.3,0.1
		c0.2,0,0.3-0.1,0.4-0.2c0.1-0.1,0.2-0.2,0.2-0.4C20.9,66.7,20.8,66.5,20.7,66.5z"/>
</g>
<rect x="3.1" y="92.7" fill="#FFFFFF" width="9.6" height="3.6"/>
<rect x="14.5" y="92.7" fill="#FFFFFF" width="9.6" height="3.6"/>
<path opacity="0.49" fill="#FFFFFF" d="M5.7,55.6l16.1,49.3H3.1c0,0-2.4-0.9-2.4-3.8s0-42,0-42s0.2-3.5,3.7-3.5"/>
</svg>
