<?xml version="1.0" encoding="utf-8"?>
<!-- Generator: Adobe Illustrator 17.1.0, SVG Export Plug-In . SVG Version: 6.00 Build 0)  -->
<!DOCTYPE svg PUBLIC "-//W3C//DTD SVG 1.1//EN" "http://www.w3.org/Graphics/SVG/1.1/DTD/svg11.dtd">
<svg version="1.1" xmlns="http://www.w3.org/2000/svg" xmlns:xlink="http://www.w3.org/1999/xlink" x="0px" y="0px"
	 viewBox="0 0 118.4 94.2" enable-background="new 0 0 118.4 94.2" xml:space="preserve">
<g id="Layer_1">
	<path fill="#D88873" d="M115.5,86.9c0,3.1-2.6,5.6-5.8,5.6H8.3c-3.2,0-5.8-2.5-5.8-5.6V20.6c0-3.1,2.6-5.6,5.8-5.6h101.3
		c3.2,0,5.8,2.5,5.8,5.6V86.9z"/>
	<line fill="#2690B0" stroke="#00B0EB" stroke-width="6" stroke-miterlimit="10" x1="32" y1="14.9" x2="32" y2="92.5"/>
	<path fill="#D88873" d="M64.5,1.3h-11c-6.1,0-11.1,5-11.1,11.1c0,4.6,2.8,8.6,6.8,10.2c0-0.2,0-0.3,0-0.5c0-3.1,0.1-6.1,1.4-8.9
		c1.5-3.2,4.9-5,8.3-4.8c7,0.5,10.6,7.7,9.9,14.1c3.9-1.7,6.7-5.6,6.7-10.2C75.6,6.3,70.6,1.3,64.5,1.3z"/>
	<line fill="#2690B0" stroke="#00B0EB" stroke-width="6" stroke-miterlimit="10" x1="85.4" y1="14.9" x2="85.4" y2="92.5"/>
	<path opacity="0.5" fill="#FFFFFF" d="M51.4,14.8l25.7,77.7H8.2c0,0-5.7-0.4-5.7-5.7s0-65.8,0-65.8s-0.1-6.2,5.7-6.2
		S51.4,14.8,51.4,14.8z"/>
	<path opacity="0.5" fill="#FFFFFF" d="M42.7,14.8c-1.1-6.1,1.8-9.6,4.3-11.3c0.7,2,3,7.8,3.8,9.5c-0.6,1-0.8,1.8-0.8,1.8
		S44,14.8,42.7,14.8z"/>
</g>
<g id="Layer_2">
</g>
</svg>
