<?xml version="1.0" encoding="utf-8"?>
<!-- Generator: Adobe Illustrator 17.1.0, SVG Export Plug-In . SVG Version: 6.00 Build 0)  -->
<!DOCTYPE svg PUBLIC "-//W3C//DTD SVG 1.1//EN" "http://www.w3.org/Graphics/SVG/1.1/DTD/svg11.dtd">
<svg version="1.1" id="Layer_1" xmlns="http://www.w3.org/2000/svg" xmlns:xlink="http://www.w3.org/1999/xlink" x="0px" y="0px"
	 viewBox="0 0 100 100" enable-background="new 0 0 100 100" xml:space="preserve">
<circle fill="#D88873" cx="50" cy="50" r="48"/>
<g>
	<g>
		<path fill="#F4EADE" d="M74.4,25.5H25.7c-4.3,0-7.9,3.5-7.9,7.9v33.3c0,4.3,3.5,7.9,7.9,7.9h48.7c4.3,0,7.9-3.5,7.9-7.9V33.4
			C82.2,29,78.7,25.5,74.4,25.5z M78.6,66.6c0,2.4-1.9,4.3-4.3,4.3H25.7c-2.4,0-4.3-1.9-4.3-4.3V33.4c0-2.4,1.9-4.3,4.3-4.3h48.7
			c2.4,0,4.3,1.9,4.3,4.3L78.6,66.6L78.6,66.6z"/>
		<path fill="#F4EADE" d="M58.4,49.6l15.8-14.1c0.7-0.7,0.8-1.8,0.1-2.5c-0.7-0.7-1.8-0.8-2.5-0.1L50,52.3l-4.2-3.8c0,0,0,0,0,0
			c-0.1-0.1-0.2-0.2-0.3-0.3L28.2,32.8c-0.7-0.7-1.9-0.6-2.5,0.1c-0.7,0.7-0.6,1.9,0.1,2.5l16,14.3L25.9,64.6
			c-0.7,0.7-0.8,1.8-0.1,2.5c0.4,0.4,0.8,0.6,1.3,0.6c0.4,0,0.9-0.2,1.2-0.5l16.1-15.1l4.4,3.9c0.3,0.3,0.8,0.5,1.2,0.5
			c0.4,0,0.9-0.2,1.2-0.5l4.5-4l16,15.2c0.3,0.3,0.8,0.5,1.2,0.5c0.5,0,0.9-0.2,1.3-0.6c0.7-0.7,0.7-1.9-0.1-2.5L58.4,49.6z"/>
	</g>
</g>
</svg>
