<?xml version="1.0" encoding="utf-8"?>
<!-- Generator: Adobe Illustrator 17.1.0, SVG Export Plug-In . SVG Version: 6.00 Build 0)  -->
<!DOCTYPE svg PUBLIC "-//W3C//DTD SVG 1.1//EN" "http://www.w3.org/Graphics/SVG/1.1/DTD/svg11.dtd">
<svg version="1.1" id="Layer_1" xmlns="http://www.w3.org/2000/svg" xmlns:xlink="http://www.w3.org/1999/xlink" x="0px" y="0px"
	 viewBox="0 0 515 79.7" enable-background="new 0 0 515 79.7" xml:space="preserve">
<g>
	<path fill="#E08A73" d="M48.5,9.2c-0.6,0.2-1.5,0.7-2.6,1.5c-0.5-0.1-1.1-0.1-1.7-0.1c-2.9,0-7.5,0.5-13.9,1.5l-5.8,0.9
		c-0.3,0-0.9-0.1-1.8-0.2c-2.1-0.3-2.5,0.1-5.1,0.6c-1.5,0.3-2.2,0.5-2.5,1.1c-0.5,1-0.9,3.4-1.2,5.9c-0.3,2.1-0.5,4-0.5,5.5
		c0,0.2,0.2,0.7,0.6,1.7c3.3-0.5,5.4-0.7,6.2-0.7h14.3v2.2c-0.9,0.1-2.2,0.2-3.8,0.2c-0.5,0-1.7,0-3.6-0.1c-1.8-0.1-3.1-0.1-3.6-0.1
		c-1.5,0-3.4,0.5-5.8,1.4c-0.3,0.1-1.4,0.3-3.1,0.7c-1.3,0.3-2.2,0.8-2.7,1.6c-0.8,6.8-1.2,11.7-1.2,14.5c0.6,0.7,1.2,1.2,1.8,1.3
		l4,0.9c1.2,0,2.7-0.1,4.3-0.3c3.5-0.3,7.7-0.5,12.5-0.5c1.1,0,2,0.1,2.9,0.1l1.2,0.1c0.6,0.2,0.8,0.4,0.8,0.8v1.3
		c-1,0.5-2.9,0.7-5.8,0.7c-0.6,0-1.2,0.2-2,0.5c-0.8,0.3-1.2,0.5-1.3,0.5c-0.3,0-1-0.1-2.1-0.2c-1.1-0.2-1.8-0.3-2.2-0.2h-0.4
		c-1.2,0.1-3.4,0.4-6.6,0.8c-2,0.3-3.2,0.4-3.4,0.4c-0.9,0-2.3-0.6-4.2-1.7c-2-1.3-3-2.3-3-3.3c0-0.5,0.2-2.2,0.7-5.3
		c0.5-3.8,1-7.2,1.5-10.1c-0.6-0.5-0.8-1.1-0.8-2c0-0.1,0-0.4,0-0.8c0.1-0.5,0.1-0.8,0.1-0.9c1.9-0.6,2.9-6.8,3.1-14
		c-1-0.5-2.5,0.9-4.4-0.3v-2.1c0.4-0.7,1.1-1,2.1-1.1c1.5-0.1,2.3-0.2,2.5-0.3c0.2-0.1,0.6-0.4,1.1-1c0.6-0.6,1-0.9,1.3-0.9
		c0.2,0,0.6,0.2,1.2,0.4c0.7,0.3,1.1,0.4,1.3,0.4c1-0.1,3.3-0.4,6.9-0.7c1.9-0.2,5.8-0.5,11.8-1c0.3-0.1,0.9-0.2,1.9-0.6
		c1-0.3,1.6-0.5,1.8-0.5c0.3,0,0.8,0.1,1.6,0.2c0.9,0.1,1.4,0.2,1.5,0.2c1.4,0.1,3.3,0.1,5.8,0.1L48.5,9.2z"/>
	<path fill="#E08A73" d="M62.3,49.8c-0.6,0.3-2.3,0.9-5,1.7c-2.8,0.8-4.4,1.2-5,1.2c-0.2,0-0.3-0.1-0.4-0.2
		c-0.1-0.1-0.3-0.2-0.4-0.2c-0.4,0-1,0.5-2.1,1.6c-0.7-0.5-1.1-1-1.1-1.3c0-1.8,2.8-3.3,8.4-4.4c0.4-0.1,1.1-0.2,1.9-0.4
		c0.3-0.2,0.7-0.5,1.2-1.1c-0.5-0.9-1.3-1.5-2.5-1.9c-1.3-0.5-3.3-1.2-6-2.2c-2.9-1.2-4.3-2.4-4.3-3.8c0-1.8,1.8-2.7,5.4-2.7
		c1.4,0,3.2,0.2,5.3,0.5c2.5,0.4,4.2,0.8,4.9,1.3l-0.4,1.5c-3.1-0.3-7.5-1.4-10.8-0.3c-0.1,0.1-0.3,0.3-0.6,0.5l8.3,2.8
		c3.1,1,4.5,2.9,4.5,4.5C63.7,48.4,63.2,49.3,62.3,49.8z"/>
	<path fill="#E08A73" d="M75.3,48.5c-0.8,1.5-1.2,2.4-1.2,2.7c-2.7,8.9-4.2,17.2-4.6,24.7c-1.1,0.3-1.6,0.4-1.4,0.4
		c-0.4,0-0.8-0.2-1.2-0.6c-0.4-0.4-0.6-0.8-0.6-1.1c0-4.6,1.6-12.4,4.9-23.4c0.4-1.5,1.1-3,1.9-4.5c0.3-0.6,1.1-1.1,2.3-1.7
		c0.5,0.4,0.8,0.8,0.8,1.3C76.2,46.3,75.9,47.1,75.3,48.5z M87.7,47.7c-2.3,1.6-4.6,2.9-7.1,4c-1.8,0.8-3,1.2-3.6,1.2h-1l-0.7-0.8
		c0.4-0.9,0.8-1.5,1.3-1.9c0.9-0.4,1.7-0.7,2.7-1.1c6.7-2.6,10-5.1,10-7.5c0-1.6-2.3-2.4-6.9-2.4c-2.3,0-4.5,0.2-6.8,0.6
		c-3.2,0.5-5.1,1.3-5.9,2.3c-0.2,0.9-0.6,2.1-1.1,3.7c-1-1.5-1.5-2.8-1.5-3.7c0-1,0.3-1.9,0.8-2.5c0.7-0.8,2.9-1.6,6.6-2.4
		c3.4-0.8,5.8-1.1,7.3-1.1c7,0,10.6,1.9,10.6,5.9C92.6,43.5,91,45.5,87.7,47.7z"/>
	<path fill="#E08A73" d="M117.5,52.7h-8.8c-2,0-4.3-0.3-6.8-0.9c-3.3-0.8-5.2-1.8-5.6-3.1c-0.5-1.4-0.7-2.7-0.7-3.9
		c0-2.5,1.1-4.4,3.2-5.8c1.8-1.1,4-1.7,6.7-1.7c2.2,0,4,0.5,5.4,1.5c1.3,1,2,2.3,2,4c0,0.9-1.6,1.9-4.7,3.1c-3,1-5.9,2-7.1,1.9
		c0,0.2-0.4,0.2-0.7,0.5c0.2,0.4,1.6,0.8,3.4,1.2c1.6,0.4,3.3,0.4,3.9,0.4h7.9c-0.1,0,0.9,0.2,3,0.5c0.7,0.4,1.1,0.8,1.4,1.3
		C119.4,52.4,118.5,52.7,117.5,52.7z M105.2,40.3c-1.5,0-2.8,0.3-4,0.9c-1.6,0.7-2.4,1.7-2.4,3c0,0.5,0.2,1.1,0.5,1.3h1.6
		c0.6,0,2.1-0.3,4.6-1.2c2.5-1,3.9-2.1,4.2-2.5C108.8,40.8,107.3,40.3,105.2,40.3z"/>
	<path fill="#E08A73" d="M143.4,45.5c-0.3,2.9-0.6,6.2-1.1,9.8c-0.1,0.3-0.3,0.4-0.8,0.4c-0.6,0-1.2-0.8-1.6-2.4
		c-0.3-1.2-0.5-2.3-0.5-3.3c0-0.5,0.2-1.8,0.6-3.9c0.5-2.1,0.7-3.4,0.7-3.9c0-1-0.3-1.5-0.8-1.5c-0.7,0-2.1,0.6-4.3,1.8
		c-1.9,1-3.3,1.8-4.2,2.5c-1.6,1.2-3.5,3-5.7,5.5c-0.4,0.5-1,1.2-2,2.3c-0.4,0.5-1.2,0.7-2.3,0.7v-1.7c0,0,0-0.1,0-0.1
		c-0.1-0.4-0.1-0.8-0.1-1.2c0-6.3,0.8-9.6,2.3-10c0.4,0.2,0.7,0.5,0.8,0.9c0.1,0.7-0.1,2.9-0.3,6.6l-0.1,0.4
		c0.5-0.5,1.1-1.1,1.8-1.6c2.4-2.1,5-4.1,7.6-5.8c3.8-2.4,6.5-3.6,8.4-3.6c0.5,0,1,0.3,1.4,0.8c0.5,0.6,0.7,1.1,0.7,1.6
		C143.9,39.9,143.8,41.9,143.4,45.5z M124.4,41.3c0,0,0.1,0.1,0.1,0.3C124.5,41.5,124.4,41.4,124.4,41.3z"/>
	<path fill="#E08A73" d="M200.2,55.3c-0.6,0-1,0-1.2-0.1c-5.6-5.7-11-8.5-16.3-8.5c-1.2,0-3.6,0.5-7.3,1.4c-1.1,0.3-2.1,1.3-3.1,3
		c-0.2,0.4-0.8,1.8-1.7,4.2c-0.3,0.2-0.8,0.5-1.6,0.9c-0.5-0.5-0.8-1.2-0.8-2.1c0-4,2.1-7.6,4.1-11.1c1.4-3.2,3-8.3,4.5-11.7
		c3.7-8,7.1-14.7,10.4-20.2v0.8c0.8-0.4,1.4-1.4,1.8-3c0.4-1.4,0.9-2.2,1.7-2.2c0.1-0.1,0.2-0.1,0.3-0.1c0.5,0,0.9,0.4,1.1,1.2
		c0.1,0.1,0.3,1.1,0.7,2.9c1.6,6.8,3.2,14.2,4.7,22.3c0.3,1.4,0.8,4,1.5,7.8c0.4,0.7,0.8,1.8,1.4,3.2c0.3,0.9,0.7,2.5,1.2,4.8
		c0.6,2.6,0.9,4.2,0.9,4.8C202.5,54.7,201.8,55.3,200.2,55.3z M197.6,47.8c0-0.5-0.5-3.4-1.4-8.5l-2.4-13c-0.9-4.7-2.2-8.9-3.6-12.5
		c-2.1,2.2-4.9,7.6-8.6,16.1c-0.3,0.7-0.9,2-1.6,3.9c-0.4,0.6-0.8,1.1-1.1,1.6c-0.3,0.4-0.9,1.8-1.8,4.1c-1,2.3-1.5,3.7-1.5,4
		c0,0.6,0.2,0.8,0.4,0.8l7-0.3c3.1-0.2,5.7,0.5,7.8,1.3c1.6,0.6,3.9,2,6.9,4.1V47.8z"/>
	<path fill="#E08A73" d="M211.7,51.9c-1,0.8-1.8,1.2-2.3,1.2c-0.5,0-1.4-0.4-2.7-1c0.1-0.7,0.4-1.6,0.9-2.8c0.3-0.4,0.8-0.8,1.6-1.3
		c0.8-0.5,1.4-0.8,1.7-0.8c0.6,0,1.1,0.3,1.5,1c0.5,0.6,0.8,1.2,0.8,1.8C213.2,50.5,212.6,51.1,211.7,51.9z"/>
	<path fill="#E08A73" d="M278.8,9.2c-0.6,0.2-1.5,0.7-2.6,1.5c-0.5-0.1-1.1-0.1-1.7-0.1c-2.9,0-7.5,0.5-13.9,1.5l-5.8,0.9
		c-0.3,0-0.9-0.1-1.8-0.2c-2.1-0.3-2.5,0.1-5.1,0.6c-1.5,0.3-2.2,0.5-2.5,1.1c-0.5,1-0.9,3.4-1.2,5.9c-0.3,2.1-0.5,4-0.5,5.5
		c0,0.2,0.2,0.7,0.6,1.7c3.3-0.5,5.4-0.7,6.2-0.7h14.3v2.2c-0.9,0.1-2.2,0.2-3.8,0.2c-0.5,0-1.7,0-3.6-0.1c-1.8-0.1-3.1-0.1-3.6-0.1
		c-1.5,0-3.4,0.5-5.8,1.4c-0.3,0.1-1.4,0.3-3.1,0.7c-1.3,0.3-2.2,0.8-2.7,1.6c-0.8,6.8-1.2,11.7-1.2,14.5c0.6,0.7,1.2,1.2,1.8,1.3
		l4,0.9c1.2,0,2.7-0.1,4.3-0.3c3.5-0.3,7.7-0.5,12.5-0.5c1.1,0,2,0.1,2.9,0.1l1.2,0.1c0.6,0.2,0.8,0.4,0.8,0.8v1.3
		c-1,0.5-2.9,0.7-5.8,0.7c-0.6,0-1.2,0.2-2,0.5c-0.8,0.3-1.2,0.5-1.3,0.5c-0.3,0-1-0.1-2.1-0.2c-1.1-0.2-1.8-0.3-2.2-0.2h-0.4
		c-1.2,0.1-3.4,0.4-6.6,0.8c-2,0.3-3.2,0.4-3.4,0.4c-0.9,0-2.3-0.6-4.2-1.7c-2-1.3-3-2.3-3-3.3c0-0.5,0.2-2.2,0.7-5.3
		c0.5-3.8,1-7.2,1.5-10.1c-0.6-0.5-0.8-1.1-0.8-2c0-0.1,0-0.4,0-0.8c0.1-0.5,0.1-0.8,0.1-0.9c1.9-0.6,2.9-6.8,3.1-14
		c-1-0.5-2.5,0.9-4.4-0.3v-2.1c0.4-0.7,1.1-1,2.1-1.1c1.5-0.1,2.3-0.2,2.5-0.3c0.2-0.1,0.6-0.4,1.1-1c0.6-0.6,1-0.9,1.3-0.9
		c0.2,0,0.6,0.2,1.2,0.4c0.7,0.3,1.1,0.4,1.3,0.4c1-0.1,3.3-0.4,6.9-0.7c1.9-0.2,5.8-0.5,11.8-1c0.3-0.1,0.9-0.2,1.9-0.6
		c1-0.3,1.6-0.5,1.8-0.5c0.3,0,0.8,0.1,1.6,0.2c0.9,0.1,1.4,0.2,1.5,0.2c1.4,0.1,3.3,0.1,5.8,0.1L278.8,9.2z"/>
	<path fill="#E08A73" d="M299.9,45.5c-0.3,2.9-0.6,6.2-1.1,9.8c-0.1,0.3-0.3,0.4-0.8,0.4c-0.6,0-1.2-0.8-1.6-2.4
		c-0.3-1.2-0.5-2.3-0.5-3.3c0-0.5,0.2-1.8,0.6-3.9c0.5-2.1,0.7-3.4,0.7-3.9c0-1-0.3-1.5-0.8-1.5c-0.7,0-2.1,0.6-4.3,1.8
		c-1.9,1-3.3,1.8-4.2,2.5c-1.6,1.2-3.5,3-5.7,5.5c-0.4,0.5-1,1.2-2,2.3c-0.4,0.5-1.2,0.7-2.3,0.7v-1.7c0,0,0-0.1,0-0.1
		c-0.1-0.4-0.1-0.8-0.1-1.2c0-6.3,0.8-9.6,2.3-10c0.4,0.2,0.7,0.5,0.8,0.9c0.1,0.7-0.1,2.9-0.3,6.6l-0.1,0.4
		c0.5-0.5,1.1-1.1,1.8-1.6c2.4-2.1,5-4.1,7.6-5.8c3.8-2.4,6.5-3.6,8.4-3.6c0.5,0,1,0.3,1.4,0.8c0.5,0.6,0.7,1.1,0.7,1.6
		C300.4,39.9,300.2,41.9,299.9,45.5z M280.8,41.3c0,0,0.1,0.1,0.1,0.3C280.9,41.5,280.8,41.4,280.8,41.3z"/>
	<path fill="#E08A73" d="M326.9,52.7h-8.8c-2,0-4.3-0.3-6.8-0.9c-3.3-0.8-5.2-1.8-5.6-3.1c-0.5-1.4-0.7-2.7-0.7-3.9
		c0-2.5,1.1-4.4,3.2-5.8c1.8-1.1,4-1.7,6.7-1.7c2.2,0,4,0.5,5.4,1.5c1.3,1,2,2.3,2,4c0,0.9-1.6,1.9-4.7,3.1c-3,1-5.9,2-7.1,1.9
		c0,0.2-0.4,0.2-0.7,0.5c0.2,0.4,1.6,0.8,3.4,1.2c1.6,0.4,3.3,0.4,3.9,0.4h7.9c-0.1,0,0.9,0.2,3,0.5c0.7,0.4,1.1,0.8,1.4,1.3
		C328.8,52.4,328,52.7,326.9,52.7z M314.6,40.3c-1.5,0-2.8,0.3-4,0.9c-1.6,0.7-2.4,1.7-2.4,3c0,0.5,0.2,1.1,0.5,1.3h1.6
		c0.6,0,2.1-0.3,4.6-1.2c2.5-1,3.9-2.1,4.2-2.5C318.2,40.8,316.7,40.3,314.6,40.3z"/>
	<path fill="#E08A73" d="M352.2,40.1l-0.8,0.7c-1.9-0.6-3.3-0.9-4.3-0.8c-1.2,0.1-2.1,0.1-2.7,0.1h-2c-0.2,0-0.5,0.1-0.9,0.3
		c-0.3,0.1-0.5,0.2-0.8,0.3c-0.7,0.1-1.7,0.2-3.2,0.6c-2.2,1-2.8,2.7-3.3,5.2c-0.3,1.3-0.3,2.3-0.3,3.2c0.2,1.9,0.2,3,0.2,3.2
		c-0.4,0.1-1.7,0.3-2.6,0.4c-0.5-0.9-0.7-1.6-0.7-1.9c0-0.3,0.1-0.8,0.1-1.4c0.1-0.7,0.1-1.2,0.1-1.5c0-1.2,0.4-2.7,1-4.6
		c0.3-0.8,0.6-1.7,0.9-2.7c0.5-0.9,1.1-1.5,1.8-2.1c1.7-1.1,4.8-1.7,9.4-1.7s7.2,0.6,8,1.8V40.1z"/>
	<path fill="#E08A73" d="M379.9,57.3l-0.8,0.7c-2.1-0.9-3.2-2.3-3.2-4.2c0-0.3,0-0.7,0.1-1.4s0.1-1.1,0.1-1.3c0-2.2-1.2-3.3-3.6-3.3
		h-0.7c-1.8,0-5,0.6-9.7,1.7c-2.3,0.6-3.6,0.8-3.7,0.8c-1.1,0-2.4-0.6-4-1.6l1.9-21.4c0.9-9.8,2.3-16.8,4.2-21
		c0.4,0.1,1,0.2,1.8,0.4c-0.5,1.6-1.1,5-1.9,10.2c-0.8,4.7-1.2,8.1-1.4,10.2c-0.4,4.1-0.7,8.2-1,12.3c-0.3,3.6-0.5,5.7-0.5,6.2v0.4
		c0,0.5,0.1,0.8,0.2,0.9c0.2,0.1,0.5,0.2,1.1,0.2c0.3,0,0.7-0.1,1.2-0.3c0.6-0.2,0.8-0.3,0.9-0.3c1.4-0.2,4-0.6,7.8-1.1
		c3-0.4,4.6-0.6,4.7-0.6c0.1,0,0.3-0.1,0.7-0.1c0.4,0,0.6,0,0.7,0c0.5,0,0.9,0.1,1.2,0.2c1.5,0.6,2.4,1.9,2.9,3.9
		c0.2,0.8,0.2,2.4,0.2,5c0,0.9,0.3,1.7,0.9,2.2V57.3z"/>
	<path fill="#E08A73" d="M406.1,52.9c-0.3,0.5-0.7,0.8-1.1,0.8c-0.5,0-1.4-0.8-2.8-2.4c-1.3-1.6-2.3-2.4-3-2.4
		c-0.2,0-1.9,0.7-5.5,2.1c-3.5,1.4-5.8,2.1-7,2.1c-0.8,0-1.7-0.4-2.8-1.2c-1-0.8-1.5-1.6-1.5-2.3c0-1.8,2-4,6-6.4
		c3.8-2.3,6.7-3.5,8.7-3.5c0.8,0,1.6,0.5,2.2,1.4V42c-0.4,0.5-0.7,0.7-1.1,0.7c-0.2,0-0.5-0.1-0.9-0.3c-0.5-0.2-0.7-0.3-0.9-0.3
		c-0.6,0-2.1,0.7-4.5,2c-2.2,1.2-3.7,2.2-4.5,2.9c-0.8,0.7-1.2,1.4-1.5,2.2c0.6,0.6,1.3,0.9,2.1,0.9c0.7,0,2.7-0.7,6-2.1
		c3.3-1.4,5.5-2.1,6.5-2.1s1.8,0.3,2.3,0.8c0.1,0.2,0.5,0.9,1.2,2.2c0.6,1,1.2,1.9,2,2.8V52.9z"/>
	<path fill="#E08A73" d="M430,44.2c-2.2,2.5-3.9,4.1-4.9,4.9c-0.5,0.4-1.6,1.2-3.5,2.5c-0.7,0.6-1.8,1.1-3.4,1.6
		c-1.6,0.5-2.8,0.8-3.7,0.8c-1.7,0-3.1-1.1-4.2-3.2c-0.9-1.8-1.4-3.6-1.4-5.6c0-1.6,0.4-3.2,1-4.9c0.3-0.1,0.5-0.2,0.8-0.4
		c0.3,0.2,0.7,0.6,1.3,1.1c-0.2,1.3-0.3,2.4-0.3,3.4c0,4,1.3,6.1,3.9,6.1c2.5,0,5.6-1.6,9.1-4.7c0.5-0.4,3.1-2.9,8-7.4h0.4
		c0.5,0,0.8,0.2,0.8,0.7C433.8,39.7,432.6,41.4,430,44.2z"/>
	<path fill="#E08A73" d="M455.8,68.7c-1.9,3.9-4.5,6.8-7.9,8.8c-1.9,1.1-5.6,1.6-11.2,1.6c-0.9,0-2.2-0.2-4-0.6
		c-1.7-0.4-3.1-0.7-4-1.1c-1.3-0.6-2.4-1.2-3.2-2c-0.6-0.6-1.1-1.4-1.6-2.6c-0.5-1.2-0.8-2.1-0.8-3c0-2.2,2.4-4.5,7.3-6.9
		c3.4-1.6,7.2-3,11.7-4.2c3.2-0.8,7.3-1.5,12.4-2.1l0.6-0.3c0.1-0.2,0.1-0.4,0.1-0.5c0-0.2-0.2-1.4-0.5-3.8
		c-0.1-0.7-0.5-1.9-1.2-3.6c-0.8-2-1.3-3-1.7-3c0.3,0-0.7,0.4-2.8,1.1c-2.1,0.8-3.7,1.1-4.7,1.1c-1.3,0-2.5-0.2-3.5-0.7
		c-1.3-0.6-1.9-1.5-1.9-2.7c0-0.3,0.1-0.9,0.2-1.6c0.2-0.9,0.2-1.3,0.2-1.3l1-1.2c0.8-0.4,1.9-0.9,3.5-1.4c1.8-0.7,3-1,3.6-1h7.1
		l0.4,1.5l-1.1,0.9c-0.5,0-0.9,0-1.4,0c-5.8,0-9.4,1.1-10.9,3.4c0.8,1,1.9,1.5,3.3,1.5c0.6,0,2.1-0.7,4.6-1.9
		c2.5-1.3,3.6-1.9,3.4-1.9c0.9,0,1.7,1,2.4,3c2.1,5.5,3.2,10.2,3.2,14.1C458.3,61.9,457.4,65.3,455.8,68.7z M455,57.4H454
		c-0.4,0.2-1.1,0.7-2.1,1.6c-0.7,0.1-2.1,0.3-4,0.7c-7.3,1.6-13.4,3.8-18.2,6.4c-2.3,1.3-3.5,2.9-3.5,4.8c0,2.3,2.6,4.2,7.6,5.4
		c1.6,0.4,3.3,0.6,4.8,0.6c2.9,0,5.2-0.4,6.8-1.2c0.5-0.4,1-0.8,1.6-1.2c0.4-0.2,1-0.6,1.8-1.2c1.9-1.5,3.5-3.8,4.8-6.8
		c1.2-2.7,1.8-5.2,1.8-7.5C455.5,58.3,455.3,57.7,455,57.4z"/>
	<path fill="#E08A73" d="M482.5,52.7h-8.8c-2,0-4.3-0.3-6.8-0.9c-3.3-0.8-5.2-1.8-5.6-3.1c-0.5-1.4-0.7-2.7-0.7-3.9
		c0-2.5,1.1-4.4,3.2-5.8c1.8-1.1,4-1.7,6.7-1.7c2.2,0,4,0.5,5.4,1.5s2,2.3,2,4c0,0.9-1.6,1.9-4.7,3.1c-3,1-5.9,2-7.1,1.9
		c0,0.2-0.4,0.2-0.7,0.5c0.2,0.4,1.6,0.8,3.4,1.2c1.6,0.4,3.3,0.4,3.9,0.4h7.9c-0.1,0,0.9,0.2,3,0.5c0.7,0.4,1.1,0.8,1.4,1.3
		C484.3,52.4,483.5,52.7,482.5,52.7z M470.2,40.3c-1.5,0-2.8,0.3-4,0.9c-1.6,0.7-2.4,1.7-2.4,3c0,0.5,0.2,1.1,0.5,1.3h1.6
		c0.6,0,2.1-0.3,4.6-1.2c2.5-1,3.9-2.1,4.2-2.5C473.7,40.8,472.2,40.3,470.2,40.3z"/>
	<path fill="#E08A73" d="M508.4,45.5c-0.3,2.9-0.6,6.2-1.1,9.8c-0.1,0.3-0.3,0.4-0.8,0.4c-0.6,0-1.2-0.8-1.6-2.4
		c-0.3-1.2-0.5-2.3-0.5-3.3c0-0.5,0.2-1.8,0.6-3.9c0.5-2.1,0.7-3.4,0.7-3.9c0-1-0.3-1.5-0.8-1.5c-0.7,0-2.1,0.6-4.3,1.8
		c-1.9,1-3.3,1.8-4.2,2.5c-1.6,1.2-3.5,3-5.7,5.5c-0.4,0.5-1,1.2-2,2.3c-0.4,0.5-1.2,0.7-2.3,0.7v-1.7c0,0,0-0.1,0-0.1
		c-0.1-0.4-0.1-0.8-0.1-1.2c0-6.3,0.8-9.6,2.3-10c0.4,0.2,0.7,0.5,0.8,0.9c0.1,0.7-0.1,2.9-0.3,6.6l-0.1,0.4
		c0.5-0.5,1.1-1.1,1.8-1.6c2.4-2.1,5-4.1,7.7-5.8c3.8-2.4,6.5-3.6,8.4-3.6c0.5,0,1,0.3,1.4,0.8c0.5,0.6,0.7,1.1,0.7,1.6
		C508.9,39.9,508.7,41.9,508.4,45.5z M489.4,41.3c0,0,0.1,0.1,0.1,0.3C489.4,41.5,489.4,41.4,489.4,41.3z"/>
</g>
</svg>
