<?xml version="1.0" encoding="utf-8"?>
<!-- Generator: Adobe Illustrator 18.0.0, SVG Export Plug-In . SVG Version: 6.00 Build 0)  -->
<!DOCTYPE svg PUBLIC "-//W3C//DTD SVG 1.1//EN" "http://www.w3.org/Graphics/SVG/1.1/DTD/svg11.dtd">
<svg version="1.1" id="Layer_1" xmlns="http://www.w3.org/2000/svg" xmlns:xlink="http://www.w3.org/1999/xlink" x="0px" y="0px"
	 viewBox="0 0 160.6 52.3" enable-background="new 0 0 160.6 52.3" xml:space="preserve">
<g>
	<g>
		<path fill="#0598BC" d="M22.1,12.5C15.7,16,11.1,22.8,7.8,29c-1.5,2.8,2.8,5.4,4.3,2.5c2.9-5.5,6.8-11.7,12.4-14.7
			C27.4,15.3,24.9,11,22.1,12.5L22.1,12.5z"/>
	</g>
</g>
<g>
	<g>
		<path fill="#0598BC" d="M9.3,33.6c6,2.4,11.6,5.5,16.9,9.2c2.7,1.8,5.2-2.5,2.5-4.3C23,34.6,17,31.4,10.6,28.8
			C7.6,27.6,6.3,32.4,9.3,33.6L9.3,33.6z"/>
	</g>
</g>
<g>
	<g>
		<path fill="#0598BC" d="M35.9,9.5c0.6,5.4,1.1,10.9,1.7,16.3c0.6,5.3,1.5,10.6-0.3,15.8c-1,3.1,3.8,4.4,4.8,1.3
			c1.7-5.1,1.2-10.1,0.7-15.3c-0.6-6.1-1.3-12.1-1.9-18.2C40.6,6.3,35.6,6.3,35.9,9.5L35.9,9.5z"/>
	</g>
</g>
<g>
	<g>
		<path fill="#0598BC" d="M42.6,42.7c-0.1-4.9,1.8-9.2,5.4-12.6c2-1.9,4.5,2.1,5.3,3.6c1.4,2.6,0.9,5.9,0,8.6
			c-1,3.1,3.9,4.4,4.8,1.3c2.2-6.9,0.1-17.5-8.4-19.1c-3.6-0.7-6.5,3-8.4,5.5c-2.7,3.6-3.8,8.2-3.8,12.6
			C37.7,45.9,42.7,45.9,42.6,42.7L42.6,42.7z"/>
	</g>
</g>
<g>
	<g>
		<path fill="#0598BC" d="M60.8,19.8c0.7,4,1.4,8,2.2,12c0.5,2.7,0.5,6.7,2.1,9c2.7,3.9,7.4,5.2,11.6,2.7c2.8-1.6,0.3-6-2.5-4.3
			c-4.9,2.9-5.5-4-6.1-7.1c-0.8-4.6-1.7-9.2-2.5-13.8C65.1,15.3,60.3,16.7,60.8,19.8L60.8,19.8z"/>
	</g>
</g>
<g>
	<g>
		<path fill="#0598BC" d="M57.5,28.7c4.7-0.7,9.2-1.9,13.6-3.7c2.9-1.2,1.7-6-1.3-4.8c-4.4,1.8-8.9,3-13.6,3.7
			C53,24.4,54.4,29.2,57.5,28.7L57.5,28.7z"/>
	</g>
</g>
<g>
	<g>
		<path fill="#0598BC" d="M77.8,23.3c3.5,6.2,5.8,12.8,6.7,19.8c0.4,3.2,5.4,3.2,5,0c-1-7.9-3.4-15.3-7.3-22.3
			C80.5,18,76.2,20.5,77.8,23.3L77.8,23.3z"/>
	</g>
</g>
<g>
	<g>
		<path fill="#0598BC" d="M91.1,41.9c0.5-4.2,1.8-8.1,4-11.8c2.6-4.4,4.6,1.6,5.1,3c0.9,2.4,1,4.9,0.8,7.5c-0.2,3,4,3.1,4.9,0.7
			c1.5-4,0.7-8.4,2.5-12.3c3.1-2.1,5.2-1.8,6.3,1c0.6,1.4,1.1,2.8,1.4,4.2c0.9,3,1.7,6,2.5,9.1c0.9,3.1,5.7,1.8,4.8-1.3
			c-1.6-5.7-3.3-20.3-12-19.9c-10,0.4-7.8,11.3-10.3,17.9c1.6,0.2,3.3,0.4,4.9,0.7c0.4-5.2-1.4-17.1-8.6-17.1
			c-8.1,0-10.5,12.3-11.3,18.3C85.6,45.1,90.7,45,91.1,41.9L91.1,41.9z"/>
	</g>
</g>
<g>
	<g>
		<path fill="#0598BC" d="M130.7,43.6c1.1-12.2,1.3-24.3,0.4-36.5c-0.2-3.2-5.2-3.2-5,0c0.9,12.2,0.7,24.4-0.4,36.5
			C125.4,46.8,130.4,46.7,130.7,43.6L130.7,43.6z"/>
	</g>
</g>
<g>
	<g>
		<path fill="#0598BC" d="M139.5,47.5c6.4-3.2,9.3-9.9,14.9-14c1.6-1.2,1.6-3.2,0-4.3c-3.6-2.6-6.4-5.7-8.7-9.5
			c-1.6-2.8-6-0.3-4.3,2.5c2.7,4.6,6.2,8.2,10.5,11.3c0-1.4,0-2.9,0-4.3c-5.5,4.1-8.7,10.8-14.9,14
			C134.1,44.6,136.6,48.9,139.5,47.5L139.5,47.5z"/>
	</g>
</g>
</svg>
