<?xml version="1.0" encoding="utf-8"?>
<!-- Generator: Adobe Illustrator 18.0.0, SVG Export Plug-In . SVG Version: 6.00 Build 0)  -->
<!DOCTYPE svg PUBLIC "-//W3C//DTD SVG 1.1//EN" "http://www.w3.org/Graphics/SVG/1.1/DTD/svg11.dtd">
<svg version="1.1" id="Layer_1" xmlns="http://www.w3.org/2000/svg" xmlns:xlink="http://www.w3.org/1999/xlink" x="0px" y="0px"
	 viewBox="0 0 87 92.1" enable-background="new 0 0 87 92.1" xml:space="preserve">
<g>
	<g>
		<path fill="#1B98BC" d="M4.1,8.7c0.8,12.4,1.7,24.7,2.5,37.1c0.9,12.8,2,25.8-0.4,38.6c-0.6,3.2,4.2,4.5,4.8,1.3
			c2.2-11.9,1.6-23.9,0.8-36c-0.9-13.7-1.8-27.3-2.7-41C8.9,5.5,3.9,5.5,4.1,8.7L4.1,8.7z"/>
	</g>
</g>
<g>
	<g>
		<path fill="#1B98BC" d="M9.8,88.2c11.3-2,22.6-3,34.1-3c11.6,0,23.2,2.2,34.8,2c3.2-0.1,3.2-5.1,0-5c-11.6,0.2-23.1-1.9-34.8-2
			C32,80.1,20.2,81.3,8.5,83.4C5.3,83.9,6.7,88.8,9.8,88.2L9.8,88.2z"/>
	</g>
</g>
<g>
	<g>
		<path fill="#1B98BC" d="M82.1,84.3C79,58.9,79.7,33.2,84.2,8c0.6-3.2-4.2-4.5-4.8-1.3c-4.6,25.7-5.5,51.7-2.3,77.6
			C77.5,87.5,82.5,87.5,82.1,84.3L82.1,84.3z"/>
	</g>
</g>
<g>
	<g>
		<path fill="#1B98BC" d="M81.2,4.2C69.2,6,57.2,7.1,45,7.6c-5.8,0.3-11.5,0.3-17.3,0.4C21.4,8.2,14.6,9.2,8.6,6.5
			c-2.9-1.3-5.5,3-2.5,4.3c4.7,2.1,9.4,2.5,14.5,2.4c6.9-0.1,13.8-0.3,20.6-0.5C55,12.4,68.8,11,82.6,9.1
			C85.7,8.6,84.4,3.8,81.2,4.2L81.2,4.2z"/>
	</g>
</g>
<g>
	<g>
		<path fill="#1B98BC" d="M17,25c6.6,14.1,7.2,31,6.6,46.3c-0.1,3.2,4.9,3.2,5,0c0.7-16.2-0.3-33.9-7.3-48.8
			C19.9,19.6,15.6,22.1,17,25L17,25z"/>
	</g>
</g>
<g>
	<g>
		<path fill="#1B98BC" d="M25.1,47.8c6.1,3.4,12.4,7.1,17.8,0.9c4.2-4.8,7.5-13.3,6-19.7c-2.9-12.3-21.5-21.6-30.2-9.7
			c-1.9,2.6,2.4,5.1,4.3,2.5c6.1-8.3,20.3,1.4,21.1,9.4c0.4,4.1-1.4,8.5-3.4,12c-3.4,5.9-8.5,2.9-13.1,0.4
			C24.8,41.9,22.3,46.2,25.1,47.8L25.1,47.8z"/>
	</g>
</g>
<g>
	<g>
		<path fill="#1B98BC" d="M46,70.6c8.5,1.1,24.5-0.5,21.9-12.8c-0.7-3.4-6.2-6.8-9.1-7.8c-2.3-0.8-8.6-0.4-8-4.3
			c0.8-5.1,10-4.5,13.2-3.8c3.1,0.8,4.5-4.1,1.3-4.8c-7.7-1.8-23.1,1.3-19,12.5c1.8,5,8.1,3.7,11.9,5.5c1.5,0.7,2.9,1.9,4.1,2.9
			c4.2,3.4-2.7,6.5-4.5,7.1c-3.7,1.2-7.9,0.9-11.8,0.4C42.8,65.2,42.9,70.2,46,70.6L46,70.6z"/>
	</g>
</g>
</svg>
