<?xml version="1.0" encoding="utf-8"?>
<!-- Generator: Adobe Illustrator 19.0.0, SVG Export Plug-In . SVG Version: 6.00 Build 0)  -->
<svg version="1.1" id="Layer_1" xmlns="http://www.w3.org/2000/svg" xmlns:xlink="http://www.w3.org/1999/xlink" x="0px" y="0px"
	 viewBox="0 0 163.9 166.2" style="enable-background:new 0 0 163.9 166.2;" xml:space="preserve">
<style type="text/css">
	.st0{fill:#1B98BC;}
	.st1{fill:#F58C74;}
	.st2{opacity:0.29;fill:#FFFFFF;}
</style>
<circle id="XMLID_27_" class="st0" cx="81.9" cy="83.1" r="78.2"/>
<path id="XMLID_31_" class="st0" d="M81.9,4.9"/>
<path id="XMLID_32_" class="st0" d="M80.2,161.2V4.9"/>
<path id="XMLID_29_" class="st1" d="M37.7,59.5h22.1V37.4H37.7V59.5z M70.9,125.8H93v-22.1H70.9V125.8z M37.7,125.8h22.1v-22.1H37.7
	V125.8z M37.7,92.7h22.1V70.6H37.7V92.7z M70.9,92.7H93V70.6H70.9V92.7z M104.1,37.4v22.1h22.1V37.4H104.1z M70.9,59.5H93V37.4H70.9
	V59.5z M104.1,92.7h22.1V70.6h-22.1V92.7z M104.1,125.8h22.1v-22.1h-22.1V125.8z"/>
<path id="XMLID_34_" class="st2" d="M118.6,152.1c-38.2,20.2-85.5,5.7-105.7-32.5S7.2,34.2,45.3,14"/>
</svg>
