<?xml version="1.0" encoding="utf-8"?>
<!-- Generator: Adobe Illustrator 18.0.0, SVG Export Plug-In . SVG Version: 6.00 Build 0)  -->
<!DOCTYPE svg PUBLIC "-//W3C//DTD SVG 1.1//EN" "http://www.w3.org/Graphics/SVG/1.1/DTD/svg11.dtd">
<svg version="1.1" id="Layer_1" xmlns="http://www.w3.org/2000/svg" xmlns:xlink="http://www.w3.org/1999/xlink" x="0px" y="0px"
	 viewBox="0 0 97.7 92.3" enable-background="new 0 0 97.7 92.3" xml:space="preserve">
<g>
	<g>
		<path fill="#1B98BC" d="M12.5,89.2c7.5-12.3,12.6-25.9,18.3-39c6.1-14,13.6-27.4,22.2-40c1.8-2.7-2.5-5.2-4.3-2.5
			C40.5,19.8,33.3,32.6,27.3,46C21.1,59.7,16,73.8,8.2,86.7C6.5,89.4,10.8,91.9,12.5,89.2L12.5,89.2z"/>
	</g>
</g>
<g>
	<g>
		<path fill="#1B98BC" d="M49.2,8.1c9,26.1,17.2,52.4,25.6,78.6c1,3.1,5.8,1.7,4.8-1.3C71.2,59.2,63,32.8,54,6.8
			C53,3.8,48.1,5.1,49.2,8.1L49.2,8.1z"/>
	</g>
</g>
<g>
	<g>
		<path fill="#1B98BC" d="M78.7,84.2C51.4,69.7,32.9,44,8.2,25.9c-2.6-1.9-5.1,2.4-2.5,4.3c24.7,18,43.2,43.8,70.6,58.2
			C79.1,90,81.6,85.7,78.7,84.2L78.7,84.2z"/>
	</g>
</g>
<g>
	<g>
		<path fill="#1B98BC" d="M6.2,30.5c28.6,1.3,57,3.6,85.4,6.9c3.2,0.4,3.2-4.6,0-5C63.2,29,34.7,26.7,6.2,25.5
			C3,25.3,3,30.3,6.2,30.5L6.2,30.5z"/>
	</g>
</g>
<g>
	<g>
		<path fill="#1B98BC" d="M88.5,33.2C59.1,45.7,38.1,70.9,9.9,85.3c-2.9,1.5-0.3,5.8,2.5,4.3C40.6,75.2,61.7,50,91,37.5
			C93.9,36.2,91.4,31.9,88.5,33.2L88.5,33.2z"/>
	</g>
</g>
</svg>
