<?xml version="1.0" encoding="utf-8"?>
<!-- Generator: Adobe Illustrator 19.0.0, SVG Export Plug-In . SVG Version: 6.00 Build 0)  -->
<svg version="1.1" id="Layer_1" xmlns="http://www.w3.org/2000/svg" xmlns:xlink="http://www.w3.org/1999/xlink" x="0px" y="0px"
	 viewBox="0 0 163.9 166.2" style="enable-background:new 0 0 163.9 166.2;" xml:space="preserve">
<style type="text/css">
	.st0{fill:#1B98BC;}
	.st1{fill:#F58C74;}
	.st2{opacity:0.29;fill:#FFFFFF;}
</style>
<circle id="XMLID_27_" class="st0" cx="81.9" cy="83.1" r="78.2"/>
<path id="XMLID_28_" class="st1" d="M57.6,96.3c-8.4,1.1-14.3,8.8-13.2,17.2c0.9,6.6-4.5,10.9-8.8,11.5c5.5,5.6,14,8.4,21.6,7.4
	c11.2-1.5,19-11.8,17.5-23C73.7,101,66,95.2,57.6,96.3z M120.7,39.5l-7.7-5.9c-2.2-1.7-5.4-1.3-7.1,1L66.6,86.1l15.8,12.1l39.3-51.5
	C123.4,44.4,122.9,41.2,120.7,39.5z"/>
<path id="XMLID_31_" class="st0" d="M81.9,4.9"/>
<path id="XMLID_32_" class="st0" d="M80.2,161.2V4.9"/>
<path id="XMLID_34_" class="st2" d="M118.6,152.1c-38.2,20.2-85.5,5.7-105.7-32.5S7.2,34.2,45.3,14"/>
</svg>
