<?xml version="1.0" encoding="utf-8"?>
<!-- Generator: Adobe Illustrator 17.1.0, SVG Export Plug-In . SVG Version: 6.00 Build 0)  -->
<!DOCTYPE svg PUBLIC "-//W3C//DTD SVG 1.1//EN" "http://www.w3.org/Graphics/SVG/1.1/DTD/svg11.dtd">
<svg version="1.1" id="Layer_1" xmlns="http://www.w3.org/2000/svg" xmlns:xlink="http://www.w3.org/1999/xlink" x="0px" y="0px"
	 viewBox="0 0 266 33.6" enable-background="new 0 0 266 33.6" xml:space="preserve">
<g>
	<path fill="#E08A73" d="M15.6,25.3h-3l-2.4-14.3h-0.1L7.8,25.3h-3L1.5,3.2h3.3l1.6,14h0.1L9,3.2h2.4L14,17.5H14l1.5-14.4h3.3
		L15.6,25.3z"/>
	<path fill="#E08A73" d="M23,18.6v2.1c0,0.5,0.1,0.9,0.4,1.1s0.7,0.4,1.1,0.4c0.6,0,1-0.2,1.2-0.5c0.2-0.4,0.3-0.7,0.4-1.1h3.2
		c0,0.7-0.1,1.3-0.3,1.9c-0.2,0.6-0.5,1.1-0.9,1.5c-0.4,0.4-0.9,0.8-1.5,1c-0.6,0.2-1.2,0.4-2,0.4c-1,0-1.8-0.2-2.5-0.6
		c-0.7-0.4-1.2-1-1.6-1.6c-0.2-0.4-0.4-0.9-0.5-1.4c-0.1-0.5-0.1-1.1-0.1-1.8v-5.2c0-0.6,0-1.2,0.1-1.8c0.1-0.5,0.2-1,0.5-1.4
		c0.4-0.7,0.9-1.2,1.6-1.6c0.7-0.4,1.5-0.6,2.5-0.6c0.7,0,1.4,0.1,2,0.4c0.6,0.2,1.1,0.6,1.5,1c0.4,0.4,0.7,1,0.9,1.6
		c0.2,0.6,0.3,1.2,0.3,1.9v4.3H23z M23,16.1h3.1v-1.8c0-0.6-0.1-1-0.4-1.3c-0.3-0.3-0.7-0.4-1.1-0.4c-0.5,0-0.9,0.2-1.1,0.4
		c-0.3,0.3-0.4,0.8-0.4,1.3V16.1z"/>
	<path fill="#E08A73" d="M31.6,3.2h3.2V11h0.1c0.4-0.5,0.8-0.9,1.3-1.2c0.5-0.3,1-0.4,1.7-0.4c0.8,0,1.4,0.1,1.8,0.4
		c0.4,0.3,0.8,0.6,1,1c0.2,0.3,0.3,0.8,0.4,1.3c0.1,0.5,0.1,1.4,0.1,2.5v6c0,0.9,0,1.6-0.1,2.1c-0.1,0.5-0.2,1-0.4,1.3
		c-0.5,1-1.5,1.5-2.8,1.5c-0.8,0-1.4-0.2-1.8-0.5c-0.4-0.3-0.8-0.7-1.2-1.1v1.4h-3.2V3.2z M37.9,14.4c0-0.5-0.1-0.9-0.3-1.3
		s-0.6-0.6-1.2-0.6c-0.5,0-0.8,0.2-1.1,0.5c-0.3,0.3-0.4,0.7-0.4,1.2v6.1c0,0.6,0.1,1,0.4,1.4c0.3,0.4,0.7,0.5,1.1,0.5
		c0.5,0,0.9-0.2,1.2-0.6s0.4-0.9,0.4-1.5V14.4z"/>
	<path fill="#E08A73" d="M52.4,3h2.5l-4.1,22.4h-2.5L52.4,3z"/>
	<path fill="#E08A73" d="M62.3,3.2h3.2v22.1h-3.2V3.2z"/>
	<path fill="#E08A73" d="M68.4,9.6h3.2v1.5h0.1c0.3-0.5,0.7-0.9,1.2-1.2s1.1-0.5,1.8-0.5c0.4,0,0.8,0.1,1.2,0.2
		c0.4,0.1,0.7,0.4,1.1,0.7c0.3,0.3,0.6,0.7,0.7,1.2c0.2,0.5,0.3,1.1,0.3,1.8v12.1h-3.2V14.4c0-0.6-0.1-1-0.4-1.4
		c-0.3-0.3-0.7-0.5-1.1-0.5c-0.6,0-1,0.2-1.2,0.6s-0.3,0.9-0.3,1.6v10.6h-3.2V9.6z"/>
	<path fill="#E08A73" d="M80.5,4.8h3.2v4.8h2V12h-2v8.7c0,0.4,0,0.7,0.1,0.9c0.1,0.2,0.2,0.4,0.3,0.5c0.2,0.1,0.4,0.2,0.6,0.2
		s0.5,0,0.9,0v3h-1.3c-0.7,0-1.3-0.1-1.8-0.3c-0.5-0.2-0.9-0.5-1.2-0.9s-0.5-0.7-0.6-1.2c-0.1-0.4-0.2-0.9-0.2-1.3V12h-1.6V9.6h1.6
		V4.8z"/>
	<path fill="#E08A73" d="M89.7,18.6v2.1c0,0.5,0.1,0.9,0.4,1.1s0.7,0.4,1.1,0.4c0.6,0,1-0.2,1.2-0.5c0.2-0.4,0.3-0.7,0.4-1.1h3.2
		c0,0.7-0.1,1.3-0.3,1.9c-0.2,0.6-0.5,1.1-0.9,1.5c-0.4,0.4-0.9,0.8-1.5,1c-0.6,0.2-1.2,0.4-2,0.4c-1,0-1.8-0.2-2.5-0.6
		c-0.7-0.4-1.2-1-1.6-1.6c-0.2-0.4-0.4-0.9-0.5-1.4c-0.1-0.5-0.1-1.1-0.1-1.8v-5.2c0-0.6,0-1.2,0.1-1.8c0.1-0.5,0.2-1,0.5-1.4
		c0.4-0.7,0.9-1.2,1.6-1.6c0.7-0.4,1.5-0.6,2.5-0.6c0.7,0,1.4,0.1,2,0.4c0.6,0.2,1.1,0.6,1.5,1c0.4,0.4,0.7,1,0.9,1.6
		c0.2,0.6,0.3,1.2,0.3,1.9v4.3H89.7z M89.7,16.1h3.1v-1.8c0-0.6-0.1-1-0.4-1.3c-0.3-0.3-0.7-0.4-1.1-0.4c-0.5,0-0.9,0.2-1.1,0.4
		c-0.3,0.3-0.4,0.8-0.4,1.3V16.1z"/>
	<path fill="#E08A73" d="M98.2,9.6h3.2v1.7c0.6-0.6,1.3-1,1.9-1.4c0.6-0.3,1.4-0.5,2.3-0.5v3.3c-0.3-0.1-0.6-0.2-1-0.2
		c-0.3,0-0.7,0.1-1.1,0.2c-0.4,0.1-0.7,0.3-1.1,0.6s-0.6,0.6-0.8,1.1c-0.2,0.4-0.3,1-0.3,1.6v9.3h-3.2V9.6z"/>
	<path fill="#E08A73" d="M112.7,23.7L112.7,23.7c-0.5,0.6-0.9,1-1.3,1.3c-0.4,0.3-1,0.5-1.8,0.5c-0.4,0-0.8-0.1-1.1-0.2
		s-0.8-0.3-1.1-0.6s-0.6-0.7-0.8-1.3c-0.2-0.5-0.3-1.3-0.3-2.1c0-0.9,0.1-1.7,0.2-2.3c0.1-0.7,0.4-1.2,0.8-1.7s0.9-0.8,1.5-1
		c0.6-0.2,1.5-0.3,2.4-0.3c0.2,0,0.5,0,0.7,0c0.2,0,0.5,0,0.8,0.1v-1.6c0-0.5-0.1-1-0.3-1.3c-0.2-0.4-0.6-0.5-1.2-0.5
		c-0.4,0-0.8,0.1-1.1,0.4s-0.6,0.7-0.7,1.2h-3.1c0.1-1.4,0.6-2.6,1.4-3.4c0.4-0.4,0.9-0.7,1.5-1c0.6-0.2,1.2-0.4,2-0.4
		c0.7,0,1.3,0.1,1.9,0.3c0.6,0.2,1.1,0.5,1.5,0.9s0.8,0.9,1,1.5s0.4,1.3,0.4,2.2v10.9h-3.2V23.7z M112.7,18.5
		c-0.4-0.1-0.6-0.1-0.9-0.1c-0.7,0-1.3,0.2-1.8,0.5c-0.5,0.3-0.7,0.9-0.7,1.8c0,0.6,0.1,1.1,0.4,1.5c0.3,0.4,0.7,0.6,1.2,0.6
		c0.5,0,1-0.2,1.3-0.5c0.3-0.4,0.4-0.8,0.4-1.5V18.5z"/>
	<path fill="#E08A73" d="M118.1,3.2h3.2v13.2h0.1l3.8-6.9h3.2l-3.8,6.4l4.5,9.3h-3.4l-2.9-6.8l-1.5,2.4v4.4h-3.2V3.2z"/>
	<path fill="#E08A73" d="M135.9,14c0-0.5-0.2-0.9-0.5-1.2s-0.7-0.4-1.1-0.4c-0.5,0-0.9,0.2-1.1,0.5c-0.3,0.3-0.4,0.7-0.4,1.1
		c0,0.3,0.1,0.6,0.2,0.9c0.1,0.3,0.5,0.5,1.1,0.8l1.9,0.7c1.2,0.5,2,1.1,2.4,1.9c0.4,0.8,0.7,1.6,0.7,2.6c0,0.7-0.1,1.3-0.4,1.8
		c-0.2,0.6-0.6,1.1-1,1.5c-0.4,0.4-0.9,0.8-1.5,1c-0.6,0.2-1.2,0.4-1.9,0.4c-0.6,0-1.2-0.1-1.8-0.3c-0.6-0.2-1-0.5-1.5-0.9
		c-0.4-0.4-0.8-0.9-1-1.5s-0.4-1.3-0.4-2.1h3c0.1,0.4,0.2,0.8,0.5,1.2c0.2,0.4,0.7,0.6,1.3,0.6c0.5,0,0.9-0.1,1.2-0.4
		s0.5-0.7,0.5-1.3c0-0.4-0.1-0.8-0.3-1.1c-0.2-0.3-0.6-0.6-1.2-0.8l-1.5-0.6c-1-0.4-1.8-0.9-2.3-1.7c-0.6-0.7-0.9-1.6-0.9-2.7
		c0-0.7,0.1-1.3,0.4-1.8c0.2-0.6,0.6-1.1,1-1.5c0.4-0.4,0.9-0.7,1.5-0.9c0.6-0.2,1.2-0.3,1.8-0.3c0.6,0,1.2,0.1,1.8,0.4
		c0.5,0.2,1,0.6,1.4,1c0.4,0.4,0.7,0.9,0.9,1.5s0.3,1.2,0.3,1.8H135.9z"/>
	<path fill="#E08A73" d="M141.1,9.6h3.2v17.4c0,1.5-0.5,2.7-1.5,3.5c-1,0.8-2.2,1.2-3.7,1.2v-3c0.4,0,0.7,0,0.9-0.1
		c0.3-0.1,0.5-0.2,0.6-0.4c0.2-0.2,0.3-0.5,0.3-0.9c0.1-0.4,0.1-0.8,0.1-1.4V9.6z M141.1,3.2h3.2v3.2h-3.2V3.2z"/>
	<path fill="#E08A73" d="M146.6,14.8c0-0.6,0-1.2,0.1-1.8c0.1-0.5,0.2-1,0.5-1.4c0.4-0.7,0.9-1.2,1.6-1.6c0.7-0.4,1.5-0.6,2.5-0.6
		c1,0,1.8,0.2,2.5,0.6c0.7,0.4,1.2,1,1.6,1.6c0.2,0.4,0.4,0.9,0.5,1.4c0.1,0.5,0.1,1.1,0.1,1.8V20c0,0.6,0,1.2-0.1,1.8
		c-0.1,0.5-0.2,1-0.5,1.4c-0.4,0.7-0.9,1.2-1.6,1.6c-0.7,0.4-1.5,0.6-2.5,0.6c-1,0-1.8-0.2-2.5-0.6c-0.7-0.4-1.2-1-1.6-1.6
		c-0.2-0.4-0.4-0.9-0.5-1.4c-0.1-0.5-0.1-1.1-0.1-1.8V14.8z M149.8,20.5c0,0.6,0.1,1,0.4,1.3c0.3,0.3,0.7,0.4,1.1,0.4
		c0.5,0,0.9-0.1,1.1-0.4c0.3-0.3,0.4-0.7,0.4-1.3v-6.2c0-0.6-0.1-1-0.4-1.3c-0.3-0.3-0.7-0.4-1.1-0.4c-0.5,0-0.9,0.2-1.1,0.4
		c-0.3,0.3-0.4,0.8-0.4,1.3V20.5z"/>
	<path fill="#E08A73" d="M158.4,9.6h3.2v1.5h0.1c0.3-0.5,0.7-0.9,1.2-1.2s1.1-0.5,1.8-0.5c0.4,0,0.8,0.1,1.2,0.2
		c0.4,0.1,0.7,0.4,1.1,0.7c0.3,0.3,0.6,0.7,0.7,1.2c0.2,0.5,0.3,1.1,0.3,1.8v12.1h-3.2V14.4c0-0.6-0.1-1-0.4-1.4
		c-0.3-0.3-0.7-0.5-1.1-0.5c-0.6,0-1,0.2-1.2,0.6s-0.3,0.9-0.3,1.6v10.6h-3.2V9.6z"/>
	<path fill="#E08A73" d="M176.1,14c0-0.5-0.2-0.9-0.5-1.2s-0.7-0.4-1.1-0.4c-0.5,0-0.9,0.2-1.1,0.5c-0.3,0.3-0.4,0.7-0.4,1.1
		c0,0.3,0.1,0.6,0.2,0.9c0.1,0.3,0.5,0.5,1.1,0.8l1.9,0.7c1.2,0.5,2,1.1,2.4,1.9c0.4,0.8,0.7,1.6,0.7,2.6c0,0.7-0.1,1.3-0.4,1.8
		c-0.2,0.6-0.6,1.1-1,1.5c-0.4,0.4-0.9,0.8-1.5,1c-0.6,0.2-1.2,0.4-1.9,0.4c-0.6,0-1.2-0.1-1.8-0.3c-0.6-0.2-1-0.5-1.5-0.9
		c-0.4-0.4-0.8-0.9-1-1.5s-0.4-1.3-0.4-2.1h3c0.1,0.4,0.2,0.8,0.5,1.2c0.2,0.4,0.7,0.6,1.3,0.6c0.5,0,0.9-0.1,1.2-0.4
		s0.5-0.7,0.5-1.3c0-0.4-0.1-0.8-0.3-1.1c-0.2-0.3-0.6-0.6-1.2-0.8l-1.5-0.6c-1-0.4-1.8-0.9-2.3-1.7c-0.6-0.7-0.9-1.6-0.9-2.7
		c0-0.7,0.1-1.3,0.4-1.8c0.2-0.6,0.6-1.1,1-1.5c0.4-0.4,0.9-0.7,1.5-0.9c0.6-0.2,1.2-0.3,1.8-0.3s1.2,0.1,1.8,0.4
		c0.5,0.2,1,0.6,1.4,1c0.4,0.4,0.7,0.9,0.9,1.5s0.3,1.2,0.3,1.8H176.1z"/>
	<path fill="#E08A73" d="M187.6,23.8c-0.2,0.2-0.4,0.4-0.6,0.6c-0.2,0.2-0.4,0.4-0.6,0.5s-0.5,0.3-0.8,0.3c-0.3,0.1-0.6,0.1-1,0.1
		c-1.3,0-2.2-0.5-2.8-1.5c-0.2-0.4-0.3-0.8-0.4-1.3c-0.1-0.5-0.1-1.2-0.1-2.1v-6c0-1.1,0-2,0.1-2.5c0.1-0.5,0.2-1,0.4-1.3
		c0.3-0.4,0.6-0.8,1-1c0.4-0.3,1-0.4,1.8-0.4c0.6,0,1.2,0.1,1.7,0.4c0.5,0.3,0.9,0.7,1.3,1.2h0.1V3.2h3.2v22.1h-3.2V23.8z
		 M184.5,20.2c0,0.6,0.1,1.2,0.4,1.5s0.6,0.6,1.2,0.6c0.5,0,0.9-0.2,1.1-0.5c0.3-0.4,0.4-0.8,0.4-1.4v-6.1c0-0.5-0.1-0.9-0.4-1.2
		s-0.7-0.5-1.1-0.5c-0.6,0-1,0.2-1.2,0.6c-0.2,0.4-0.3,0.8-0.3,1.3V20.2z"/>
	<path fill="#E08A73" d="M196.3,18.6v2.1c0,0.5,0.1,0.9,0.4,1.1s0.7,0.4,1.1,0.4c0.6,0,1-0.2,1.2-0.5c0.2-0.4,0.3-0.7,0.4-1.1h3.2
		c0,0.7-0.1,1.3-0.3,1.9c-0.2,0.6-0.5,1.1-0.9,1.5c-0.4,0.4-0.9,0.8-1.5,1c-0.6,0.2-1.2,0.4-2,0.4c-1,0-1.8-0.2-2.5-0.6
		c-0.7-0.4-1.2-1-1.6-1.6c-0.2-0.4-0.4-0.9-0.5-1.4c-0.1-0.5-0.1-1.1-0.1-1.8v-5.2c0-0.6,0-1.2,0.1-1.8c0.1-0.5,0.2-1,0.5-1.4
		c0.4-0.7,0.9-1.2,1.6-1.6c0.7-0.4,1.5-0.6,2.5-0.6c0.7,0,1.4,0.1,2,0.4c0.6,0.2,1.1,0.6,1.5,1c0.4,0.4,0.7,1,0.9,1.6
		c0.2,0.6,0.3,1.2,0.3,1.9v4.3H196.3z M196.3,16.1h3.1v-1.8c0-0.6-0.1-1-0.4-1.3c-0.3-0.3-0.7-0.4-1.1-0.4c-0.5,0-0.9,0.2-1.1,0.4
		c-0.3,0.3-0.4,0.8-0.4,1.3V16.1z"/>
	<path fill="#E08A73" d="M210.6,14c0-0.5-0.2-0.9-0.5-1.2s-0.7-0.4-1.1-0.4c-0.5,0-0.9,0.2-1.1,0.5c-0.3,0.3-0.4,0.7-0.4,1.1
		c0,0.3,0.1,0.6,0.2,0.9c0.1,0.3,0.5,0.5,1.1,0.8l1.9,0.7c1.2,0.5,2,1.1,2.4,1.9c0.4,0.8,0.7,1.6,0.7,2.6c0,0.7-0.1,1.3-0.4,1.8
		c-0.2,0.6-0.6,1.1-1,1.5c-0.4,0.4-0.9,0.8-1.5,1c-0.6,0.2-1.2,0.4-1.9,0.4c-0.6,0-1.2-0.1-1.8-0.3c-0.6-0.2-1-0.5-1.5-0.9
		c-0.4-0.4-0.8-0.9-1-1.5s-0.4-1.3-0.4-2.1h3c0.1,0.4,0.2,0.8,0.5,1.2c0.2,0.4,0.7,0.6,1.3,0.6c0.5,0,0.9-0.1,1.2-0.4
		s0.5-0.7,0.5-1.3c0-0.4-0.1-0.8-0.3-1.1c-0.2-0.3-0.6-0.6-1.2-0.8l-1.5-0.6c-1-0.4-1.8-0.9-2.3-1.7c-0.6-0.7-0.9-1.6-0.9-2.7
		c0-0.7,0.1-1.3,0.4-1.8c0.2-0.6,0.6-1.1,1-1.5c0.4-0.4,0.9-0.7,1.5-0.9c0.6-0.2,1.2-0.3,1.8-0.3s1.2,0.1,1.8,0.4
		c0.5,0.2,1,0.6,1.4,1c0.4,0.4,0.7,0.9,0.9,1.5s0.3,1.2,0.3,1.8H210.6z"/>
	<path fill="#E08A73" d="M215.8,3.2h3.2v3.2h-3.2V3.2z M215.8,9.6h3.2v15.7h-3.2V9.6z"/>
	<path fill="#E08A73" d="M224.7,27.1c0,0.4,0.2,0.7,0.4,1.1c0.3,0.3,0.7,0.5,1.2,0.5c0.5,0,0.9-0.2,1.1-0.5c0.2-0.3,0.3-0.7,0.3-1.2
		v-3.1h-0.1c-0.4,0.5-0.8,0.9-1.3,1.2c-0.5,0.3-1,0.4-1.7,0.4c-1.3,0-2.2-0.5-2.8-1.5c-0.2-0.4-0.3-0.8-0.4-1.3
		c-0.1-0.5-0.1-1.2-0.1-2.1v-6c0-1.1,0-2,0.1-2.5c0.1-0.5,0.2-1,0.4-1.3c0.3-0.4,0.6-0.8,1-1c0.4-0.3,1-0.4,1.8-0.4
		c0.4,0,0.7,0,1,0.1c0.3,0.1,0.5,0.2,0.8,0.3c0.2,0.1,0.4,0.3,0.6,0.5c0.2,0.2,0.4,0.4,0.6,0.6V9.6h3.2v17.6c0,0.5-0.1,1.1-0.3,1.6
		s-0.5,1-0.9,1.5s-0.9,0.8-1.5,1.1c-0.6,0.3-1.3,0.4-2.1,0.4c-0.5,0-1-0.1-1.5-0.2c-0.5-0.2-1-0.4-1.4-0.8c-0.4-0.4-0.8-0.8-1.1-1.4
		s-0.5-1.4-0.6-2.3H224.7z M224.7,20.4c0,0.5,0.1,0.9,0.3,1.3c0.2,0.4,0.6,0.6,1.2,0.6c0.5,0,0.8-0.2,1.1-0.5
		c0.3-0.3,0.4-0.7,0.4-1.2v-6.1c0-0.6-0.1-1-0.4-1.4c-0.3-0.4-0.7-0.5-1.1-0.5c-0.5,0-0.9,0.2-1.2,0.6s-0.4,0.9-0.4,1.5V20.4z"/>
	<path fill="#E08A73" d="M233.6,9.6h3.2v1.5h0.1c0.3-0.5,0.7-0.9,1.2-1.2s1.1-0.5,1.8-0.5c0.4,0,0.8,0.1,1.2,0.2
		c0.4,0.1,0.7,0.4,1.1,0.7c0.3,0.3,0.6,0.7,0.7,1.2c0.2,0.5,0.3,1.1,0.3,1.8v12.1h-3.2V14.4c0-0.6-0.1-1-0.4-1.4
		c-0.3-0.3-0.7-0.5-1.1-0.5c-0.6,0-1,0.2-1.2,0.6s-0.3,0.9-0.3,1.6v10.6h-3.2V9.6z"/>
	<path fill="#E08A73" d="M248.5,18.6v2.1c0,0.5,0.1,0.9,0.4,1.1s0.7,0.4,1.1,0.4c0.6,0,1-0.2,1.2-0.5c0.2-0.4,0.3-0.7,0.4-1.1h3.2
		c0,0.7-0.1,1.3-0.3,1.9c-0.2,0.6-0.5,1.1-0.9,1.5c-0.4,0.4-0.9,0.8-1.5,1c-0.6,0.2-1.2,0.4-2,0.4c-1,0-1.8-0.2-2.5-0.6
		c-0.7-0.4-1.2-1-1.6-1.6c-0.2-0.4-0.4-0.9-0.5-1.4c-0.1-0.5-0.1-1.1-0.1-1.8v-5.2c0-0.6,0-1.2,0.1-1.8c0.1-0.5,0.2-1,0.5-1.4
		c0.4-0.7,0.9-1.2,1.6-1.6c0.7-0.4,1.5-0.6,2.5-0.6c0.7,0,1.4,0.1,2,0.4c0.6,0.2,1.1,0.6,1.5,1c0.4,0.4,0.7,1,0.9,1.6
		c0.2,0.6,0.3,1.2,0.3,1.9v4.3H248.5z M248.5,16.1h3.1v-1.8c0-0.6-0.1-1-0.4-1.3c-0.3-0.3-0.7-0.4-1.1-0.4c-0.5,0-0.9,0.2-1.1,0.4
		c-0.3,0.3-0.4,0.8-0.4,1.3V16.1z"/>
	<path fill="#E08A73" d="M257.1,9.6h3.2v1.7c0.6-0.6,1.3-1,1.9-1.4c0.6-0.3,1.4-0.5,2.3-0.5v3.3c-0.3-0.1-0.6-0.2-1-0.2
		c-0.3,0-0.7,0.1-1.1,0.2c-0.4,0.1-0.7,0.3-1.1,0.6s-0.6,0.6-0.8,1.1c-0.2,0.4-0.3,1-0.3,1.6v9.3h-3.2V9.6z"/>
</g>
</svg>
